<?xml version="1.0" encoding="utf-8"?>
<!-- Generator: Adobe Illustrator 25.2.1, SVG Export Plug-In . SVG Version: 6.00 Build 0)  -->
<svg version="1.1" id="Слой_1" xmlns="http://www.w3.org/2000/svg" xmlns:xlink="http://www.w3.org/1999/xlink" x="0px" y="0px"
	 viewBox="0 0 480 854" style="enable-background:new 0 0 480 854;" xml:space="preserve">
<style type="text/css">
	.st0{fill:#EDE5CC;}
	.st1{fill:#FFFFFF;stroke:#FF7BAC;stroke-width:5;stroke-miterlimit:10;}
	.st2{fill:none;stroke:#FF7BAC;stroke-width:5;stroke-miterlimit:10;}
	.st3{fill:#DFD0A3;}
	.st4{fill:#FFFFFF;stroke:#754C24;stroke-width:5;stroke-miterlimit:10;}
	.st5{fill:none;stroke:#754C24;stroke-width:5;stroke-miterlimit:10;}
	.st6{fill:#FFFFFF;stroke:#998675;stroke-width:5;stroke-miterlimit:10;}
	.st7{fill:none;stroke:#998675;stroke-width:5;stroke-miterlimit:10;}
	.st8{fill:#FFFFFF;stroke:#FBB03B;stroke-width:5;stroke-miterlimit:10;}
	.st9{fill:none;stroke:#FBB03B;stroke-width:5;stroke-miterlimit:10;}
	.st10{fill:#FFFFFF;stroke:#000000;stroke-width:5;stroke-miterlimit:10;}
	.st11{fill:none;stroke:#000000;stroke-width:5;stroke-miterlimit:10;}
	.st12{fill:#D8C7A3;}
	.st13{fill:#A58E68;}
	.st14{fill:#EAA29B;}
	.st15{fill:#D0BD77;}
	.st16{fill:none;}
	.st17{fill:none;stroke:#EDE5CC;stroke-width:8;stroke-miterlimit:10;}
</style>
<path class="st0" d="M284,354c23,15.5-29.88,40-65.5,40s-81.5-5-64.5-31.5c10.87-16.94,30.75-42.91,64.5-31.5
	C254,343,269.57,344.28,284,354z"/>
<path class="st1" d="M321.14,583c19.25,0,34.86,13.43,34.86,30s-15.61,30-34.86,30"/>
<line class="st2" x1="137.5" y1="583.55" x2="321.14" y2="583.55"/>
<line class="st2" x1="139.99" y1="642.45" x2="323.63" y2="642.45"/>
<g>
	<path class="st3" d="M152.72,603.73H350.2c-0.79-1.86-1.82-3.68-3.07-5.45H150.15C151.2,600.06,152.05,601.88,152.72,603.73z"/>
	<path class="st3" d="M144.26,590.64H339.8c-1.95-1.55-4.12-3.01-6.53-4.36c-64.63,0-129.27,0-193.9,0
		C141.16,587.67,142.79,589.13,144.26,590.64z"/>
	<path class="st3" d="M150.77,627.73h197.09c1.37-2.12,2.44-4.31,3.16-6.55H153.42C152.8,623.4,151.93,625.59,150.77,627.73z"/>
	<path class="st3" d="M352.16,611.36c-0.2-2.2-0.71-4.39-1.52-6.55H153.09c0.69,2.16,1.12,4.35,1.29,6.55H352.16z"/>
	<path class="st3" d="M153.69,620.09h197.65c0.7-2.52,0.99-5.08,0.88-7.64H154.44C154.54,615.01,154.29,617.56,153.69,620.09z"/>
	<path class="st3" d="M144.26,636.45c-1.47,1.51-3.1,2.97-4.89,4.36c64.63,0,129.27,0,193.9,0c2.41-1.35,4.58-2.82,6.53-4.36H144.26
		z"/>
	<path class="st3" d="M149.49,597.18h196.84c-1.47-1.9-3.22-3.72-5.23-5.45H145.28C146.9,593.49,148.3,595.31,149.49,597.18z"/>
	<path class="st3" d="M347.13,628.82H150.15c-1.32,2.25-2.94,4.44-4.87,6.55H341.1C343.5,633.3,345.5,631.11,347.13,628.82z"/>
</g>
<path class="st4" d="M316.66,645c18.42,0,33.34,12.31,33.34,27.5S335.07,700,316.66,700"/>
<line class="st5" x1="141" y1="645.5" x2="316.66" y2="645.5"/>
<line class="st5" x1="143.38" y1="699.5" x2="319.04" y2="699.5"/>
<g>
	<path class="st3" d="M155.55,664h188.9c-0.76-1.71-1.74-3.38-2.94-5H153.1C154.1,660.64,154.92,662.31,155.55,664z"/>
	<path class="st3" d="M147.47,652H334.5c-1.86-1.42-3.95-2.76-6.25-4c-61.82,0-123.65,0-185.47,0
		C144.5,649.28,146.06,650.62,147.47,652z"/>
	<path class="st3" d="M153.7,686h188.52c1.31-1.95,2.33-3.95,3.03-6H156.22C155.64,682.03,154.8,684.04,153.7,686z"/>
	<path class="st3" d="M346.32,671c-0.19-2.02-0.68-4.03-1.45-6H155.91c0.66,1.98,1.07,3.99,1.23,6H346.32z"/>
	<path class="st3" d="M156.49,679h189.06c0.67-2.31,0.95-4.66,0.84-7H157.2C157.3,674.34,157.06,676.68,156.49,679z"/>
	<path class="st3" d="M147.47,694c-1.41,1.38-2.97,2.72-4.68,4c61.82,0,123.65,0,185.47,0c2.3-1.24,4.38-2.58,6.25-4H147.47z"/>
	<path class="st3" d="M152.47,658h188.29c-1.4-1.74-3.08-3.41-5-5H148.45C149.99,654.62,151.33,656.29,152.47,658z"/>
	<path class="st3" d="M341.51,687H153.1c-1.26,2.06-2.81,4.07-4.65,6h187.31C338.04,691.11,339.96,689.1,341.51,687z"/>
</g>
<path class="st6" d="M146.07,546c-17.71,0-32.07,7.39-32.07,16.5s14.36,16.5,32.07,16.5"/>
<line class="st7" x1="315" y1="546.3" x2="146.07" y2="546.3"/>
<line class="st7" x1="312.71" y1="578.7" x2="143.78" y2="578.7"/>
<g>
	<path class="st3" d="M301,557.4H119.33c0.73-1.02,1.67-2.03,2.83-3h181.2C302.4,555.38,301.61,556.38,301,557.4z"/>
	<path class="st3" d="M308.78,550.2H128.9c1.79-0.85,3.79-1.65,6.01-2.4c59.46,0,118.91,0,178.37,0
		C311.63,548.57,310.14,549.37,308.78,550.2z"/>
	<path class="st3" d="M302.79,570.6H121.48c-1.26-1.17-2.24-2.37-2.91-3.6h181.79C300.92,568.22,301.73,569.42,302.79,570.6z"/>
	<path class="st3" d="M117.54,561.6c0.18-1.21,0.65-2.42,1.4-3.6h181.72c-0.63,1.19-1.03,2.39-1.18,3.6H117.54z"/>
	<path class="st3" d="M300.11,566.4H118.28c-0.64-1.39-0.91-2.79-0.81-4.2h181.94C299.33,563.6,299.56,565.01,300.11,566.4z"/>
	<path class="st3" d="M308.78,575.4c1.36,0.83,2.85,1.63,4.5,2.4c-59.46,0-118.91,0-178.37,0c-2.21-0.75-4.21-1.55-6.01-2.4H308.78z
		"/>
	<path class="st3" d="M303.97,553.8H122.89c1.35-1.04,2.96-2.05,4.81-3h180.14C306.36,551.77,305.06,552.77,303.97,553.8z"/>
	<path class="st3" d="M122.16,571.2h181.2c1.21,1.24,2.71,2.44,4.48,3.6H127.7C125.5,573.67,123.65,572.46,122.16,571.2z"/>
</g>
<path class="st8" d="M313,489c15.46,0,28,12.31,28,27.5c0,15.19-12.54,27.5-28,27.5"/>
<line class="st9" x1="165.5" y1="489.5" x2="313" y2="489.5"/>
<line class="st9" x1="167.5" y1="543.5" x2="315" y2="543.5"/>
<g>
	<path class="st3" d="M177.72,508h158.62c-0.64-1.71-1.46-3.38-2.47-5H175.66C176.5,504.64,177.19,506.31,177.72,508z"/>
	<path class="st3" d="M170.93,496h157.06c-1.57-1.42-3.31-2.76-5.25-4c-51.91,0-103.83,0-155.74,0
		C168.44,493.28,169.75,494.62,170.93,496z"/>
	<path class="st3" d="M176.16,530h158.31c1.1-1.95,1.96-3.95,2.54-6H178.28C177.79,526.03,177.09,528.04,176.16,530z"/>
	<path class="st3" d="M337.91,515c-0.16-2.02-0.57-4.03-1.22-6H178.02c0.55,1.98,0.9,3.99,1.03,6H337.91z"/>
	<path class="st3" d="M178.5,523h158.76c0.56-2.31,0.8-4.66,0.7-7H179.1C179.18,518.34,178.98,520.68,178.5,523z"/>
	<path class="st3" d="M170.93,538c-1.18,1.38-2.49,2.72-3.93,4c51.91,0,103.83,0,155.74,0c1.93-1.24,3.68-2.58,5.25-4H170.93z"/>
	<path class="st3" d="M175.13,502h158.11c-1.18-1.74-2.58-3.41-4.2-5H171.75C173.05,498.62,174.18,500.29,175.13,502z"/>
	<path class="st3" d="M333.87,531H175.66c-1.06,2.06-2.36,4.07-3.91,6h157.28C330.96,535.11,332.57,533.1,333.87,531z"/>
</g>
<path class="st10" d="M322.87,441c13.88,0,25.13,10.3,25.13,23s-11.25,23-25.13,23"/>
<line class="st11" x1="190.5" y1="441.42" x2="322.87" y2="441.42"/>
<line class="st11" x1="192.29" y1="486.58" x2="324.67" y2="486.58"/>
<g>
	<path class="st3" d="M201.47,456.89h142.35c-0.57-1.43-1.31-2.82-2.22-4.18H199.62C200.37,454.08,200.99,455.47,201.47,456.89z"/>
	<path class="st3" d="M195.37,446.85h140.95c-1.41-1.19-2.97-2.31-4.71-3.35c-46.59,0-93.18,0-139.77,0
		C193.14,444.58,194.31,445.7,195.37,446.85z"/>
	<path class="st3" d="M200.07,475.29h142.07c0.99-1.63,1.76-3.31,2.28-5.02H201.97C201.53,471.97,200.9,473.65,200.07,475.29z"/>
	<path class="st3" d="M345.23,462.75c-0.14-1.69-0.51-3.37-1.1-5.02H201.74c0.5,1.66,0.8,3.33,0.93,5.02H345.23z"/>
	<path class="st3" d="M202.17,469.44h142.47c0.5-1.93,0.71-3.9,0.63-5.85H202.71C202.78,465.54,202.6,467.5,202.17,469.44z"/>
	<path class="st3" d="M195.37,481.98c-1.06,1.15-2.23,2.27-3.53,3.35c46.59,0,93.18,0,139.77,0c1.73-1.04,3.3-2.16,4.71-3.35H195.37
		z"/>
	<path class="st3" d="M199.14,451.87h141.89c-1.06-1.46-2.32-2.85-3.77-4.18H196.11C197.27,449.04,198.29,450.44,199.14,451.87z"/>
	<path class="st3" d="M341.6,476.13H199.62c-0.95,1.73-2.12,3.4-3.51,5.02h141.15C338.99,479.57,340.43,477.88,341.6,476.13z"/>
</g>
<path class="st4" d="M300,383c15.46,0,28,12.31,28,27.5S315.46,438,300,438"/>
<line class="st5" x1="152.5" y1="383.5" x2="300" y2="383.5"/>
<line class="st5" x1="154.5" y1="437.5" x2="302" y2="437.5"/>
<g>
	<path class="st3" d="M164.72,402h158.62c-0.64-1.71-1.46-3.38-2.47-5H162.66C163.5,398.64,164.19,400.31,164.72,402z"/>
	<path class="st3" d="M157.93,390h157.06c-1.57-1.42-3.31-2.76-5.25-4c-51.91,0-103.83,0-155.74,0
		C155.44,387.28,156.75,388.62,157.93,390z"/>
	<path class="st3" d="M163.16,424h158.31c1.1-1.95,1.96-3.95,2.54-6H165.28C164.79,420.03,164.09,422.04,163.16,424z"/>
	<path class="st3" d="M324.91,409c-0.16-2.02-0.57-4.03-1.22-6H165.02c0.55,1.98,0.9,3.99,1.03,6H324.91z"/>
	<path class="st3" d="M165.5,417h158.76c0.56-2.31,0.8-4.66,0.7-7H166.1C166.18,412.34,165.98,414.68,165.5,417z"/>
	<path class="st3" d="M157.93,432c-1.18,1.38-2.49,2.72-3.93,4c51.91,0,103.83,0,155.74,0c1.93-1.24,3.68-2.58,5.25-4H157.93z"/>
	<path class="st3" d="M162.13,396h158.11c-1.18-1.74-2.58-3.41-4.2-5H158.75C160.05,392.62,161.18,394.29,162.13,396z"/>
	<path class="st3" d="M320.87,425H162.66c-1.06,2.06-2.36,4.07-3.91,6h157.28C317.96,429.11,319.57,427.1,320.87,425z"/>
</g>
<g>
	<path class="st12" d="M320.84,357.51c3.4,18.7-15.25,26.11-41.84,24.29c-26.29-0.98-33.81-14.83-27.17-33.92
		c5.91-18.6,20.32-27.56,37.75-25.51C306.56,323.87,318.31,338.68,320.84,357.51z"/>
</g>
<g>
	<path class="st0" d="M320.94,356.89c3.4,18.7-15.25,26.11-41.84,24.29c-26.29-0.98-33.81-14.83-27.17-33.92
		c5.91-18.6,20.32-27.56,37.74-25.51C306.66,323.25,318.41,338.06,320.94,356.89z"/>
</g>
<path class="st0" d="M276.39,324.19c3.12,5.53-2.96,7.9-7.08,9.72s-9.91,4.71-13.03-0.82c-3.12-5.53-2.4-17.38,1.72-19.21
	C262.12,312.06,273.27,318.66,276.39,324.19z"/>
<path class="st12" d="M269.88,325.59c3.12,5.53,1.69,3.21-2.43,5.03s-2.88,4.23-6-1.3s-5.56-10.06-1.44-11.88
	C264.13,315.62,266.76,320.06,269.88,325.59z"/>
<path class="st0" d="M319,339.85c-4.07,5.03-9.27,1.37-13.01-1c-3.74-2.37-9.33-5.56-5.26-10.58c4.07-5.03,16.24-9.99,19.99-7.62
	C324.45,323.02,323.07,334.82,319,339.85z"/>
<path class="st12" d="M314.56,335.41c-4.07,5.03-2.41,2.82-6.16,0.44c-3.74-2.37-5.57-0.28-1.51-5.3s7.45-9.05,11.19-6.67
	S318.63,330.38,314.56,335.41z"/>
<path class="st13" d="M273.42,351.75c1.91,0.65,3.57,1.49,4.83,2.4c0.05-0.06,0.08-0.12,0.11-0.18c0.45-1.03-1.62-2.69-4.61-3.7
	c-2.99-1.01-5.78-0.99-6.22,0.04c-0.05,0.12-0.06,0.24-0.05,0.37C269.2,350.68,271.28,351.03,273.42,351.75z"/>
<path class="st13" d="M300.73,354.14c2.03-0.26,3.94-0.23,5.54,0.02c0.01-0.07,0.01-0.14,0-0.2c-0.18-1.09-2.89-1.65-6.06-1.25
	s-5.59,1.62-5.41,2.71c0.02,0.12,0.08,0.24,0.16,0.35C296.46,355.02,298.48,354.42,300.73,354.14z"/>
<path class="st14" d="M290.1,362.42c-0.22,1.36-4.22,1.98-4.22,1.98s-3.65-1.59-3.43-2.95c0.22-1.36,2.11-2.25,4.22-1.98
	C288.79,359.74,290.32,361.06,290.1,362.42z"/>
<path class="st15" d="M278.05,393.81c-2.53,3.62-12.05-0.81-22.8-6.14c-6.92-3.43-22.84-13.06-20.25-18.67
	c1.85-4.01,17.74,1.71,29.4,5.54C278,379,280.58,390.18,278.05,393.81z"/>
<ellipse transform="matrix(0.6402 -0.7682 0.7682 0.6402 -178.8206 374.5021)" class="st0" cx="310.38" cy="378.15" rx="8" ry="20.5"/>
<path class="st0" d="M278.31,393.26c-2.53,3.62-12.05-0.81-22.8-6.14c-6.92-3.43-22.84-13.06-20.25-18.67
	c1.85-4.01,17.74,1.71,29.4,5.54C278.25,378.45,280.83,389.64,278.31,393.26z"/>
<ellipse class="st15" cx="190.5" cy="363" rx="17.5" ry="16"/>
<ellipse class="st0" cx="189.5" cy="363" rx="17.5" ry="16"/>
<g>
	<g>
		<path class="st15" d="M224.5,512.5c1.93,0,1.93-3,0-3C222.57,509.5,222.57,512.5,224.5,512.5L224.5,512.5z"/>
	</g>
</g>
<path class="st16" d="M221,261c-21.54,9.94-47.06,0.54-57-21c-7.95-17.23-0.43-37.65,16.8-45.6c13.79-6.36,30.12-0.35,36.48,13.44
	c5.09,11.03,0.28,24.09-10.75,29.18c-8.82,4.07-19.28,0.22-23.35-8.6c-3.26-7.06-0.18-15.42,6.88-18.68
	c5.65-2.61,12.34-0.14,14.94,5.51c2.08,4.52,0.11,9.87-4.4,11.95c-3.61,1.67-7.9,0.09-9.56-3.52c-1.33-2.89-0.07-6.32,2.82-7.65"/>
<path class="st16" d="M258,233.5c0-27.61-22.39-50-50-50c-16.57,0-30,13.43-30,30c0,9.94,8.06,18,18,18c5.96,0,10.8-4.84,10.8-10.8"
	/>
<path class="st16" d="M198,225c13.81-31.48-0.52-68.19-32-82c-18.89-8.28-40.92,0.31-49.2,19.2c-4.97,11.33,0.19,24.55,11.52,29.52
	c6.8,2.98,14.73-0.11,17.71-6.91"/>
<path class="st16" d="M201.5,171.5c0-27.61-22.39-50-50-50c-16.57,0-30,13.43-30,30c0,9.94,8.06,18,18,18
	c5.96,0,10.8-4.84,10.8-10.8"/>
<path class="st17" d="M192.11,339.39c-27.61-0.43-50.34,21.61-50.77,49.22c-0.26,16.57,12.97,30.2,29.53,30.46
	c9.94,0.15,18.12-7.78,18.28-17.72c0.09-5.96-4.67-10.87-10.63-10.97"/>
</svg>
