<svg height="480pt" viewBox="0 -34 480.0002 480" width="480pt" xmlns="http://www.w3.org/2000/svg"><path d="m152 144c39.765625 0 72-32.234375 72-72s-32.234375-72-72-72-72 32.234375-72 72c.042969 39.746094 32.253906 71.957031 72 72zm0-128c30.929688 0 56 25.070312 56 56s-25.070312 56-56 56-56-25.070312-56-56c.039062-30.910156 25.089844-55.960938 56-56zm0 0"/><path d="m368 136c30.929688 0 56-25.070312 56-56s-25.070312-56-56-56-56 25.070312-56 56c.039062 30.910156 25.089844 55.960938 56 56zm0-96c22.089844 0 40 17.910156 40 40s-17.910156 40-40 40-40-17.910156-40-40c.027344-22.082031 17.917969-39.972656 40-40zm0 0"/><path d="m408 144h-8c-2.121094 0-4.15625.84375-5.65625 2.34375l-26.398438 26.398438-26.816406-26.398438c-1.492187-1.472656-3.503906-2.300781-5.601562-2.304688h-7.527344c-20.054688.035157-39.1875 8.425782-52.800781 23.152344-16.046875-15.003906-37.230469-23.304687-59.199219-23.191406-2.121094 0-4.15625.84375-5.65625 2.34375l-58.34375 58.34375-58.34375-58.34375c-1.5-1.5-3.535156-2.34375-5.65625-2.34375-48.574219.066406-87.9335938 39.425781-88 88v101.601562c-.00390625 9.496094 5.589844 18.101563 14.273438 21.949219l121.511718 53.992188c10.316406 4.605469 22.105469 4.605469 32.421875 0l121.519531-54c8.679688-3.847657 14.273438-12.449219 14.273438-21.941407v-13.511718l56.921875 22.117187c2.238281.691407 4.570313 1.046875 6.917969 1.050781 2.640625-.019531 5.261718-.433593 7.777344-1.234374l89.039062-34.566407c9.277344-3.558593 15.382812-12.480469 15.34375-22.417969v-69.039062c-.042969-39.746094-32.253906-71.957031-72-72zm-120 189.601562c0 3.179688-1.886719 6.054688-4.800781 7.328126l-121.519531 54.007812c-6.175782 2.757812-13.238282 2.757812-19.414063 0l-121.464844-54.007812c-2.914062-1.273438-4.800781-4.148438-4.800781-7.328126v-101.601562c.050781-38.5 30.339844-70.167969 68.800781-71.929688l61.597657 61.601563c3.125 3.125 8.191406 3.125 11.3125 0l61.601562-61.601563c12.363281.550782 24.371094 4.296876 34.855469 10.875 5.886719 3.648438 11.199219 8.144532 15.777343 13.34375 11.671876 13.144532 18.101563 30.128907 18.054688 47.710938zm176-48.5625c.007812 3.324219-2.039062 6.308594-5.144531 7.496094l-88.457031 34.375c-1.34375.46875-2.796876.539063-4.183594.203125l-62.214844-24.183593v-70.929688c0-2.566406-.128906-5.121094-.351562-7.65625-.074219-.800781-.207032-1.65625-.304688-2.488281-.191406-1.6875-.398438-3.375-.6875-5.046875-.175781-.984375-.398438-1.953125-.609375-2.929688-.3125-1.496094-.640625-2.992187-1.03125-4.460937-.273437-1.027344-.582031-2.042969-.886719-3.050781-.425781-1.398438-.871094-2.78125-1.367187-4.152344-.371094-1.03125-.761719-2.046875-1.175781-3.0625-.53125-1.320313-1.097657-2.625-1.691407-3.921875-.460937-1.007813-.933593-2.007813-1.4375-2.992188-.640625-1.269531-1.335937-2.511719-2.042969-3.75-.550781-.960937-1.085937-1.921875-1.660156-2.855469-.800781-1.257812-1.601562-2.472656-2.472656-3.6875-.601562-.855468-1.167969-1.730468-1.792969-2.5625-.128906-.167968-.230469-.351562-.359375-.519531 10.625-11.976562 25.859375-18.839843 41.871094-18.863281h4.238281l30.160157 29.695312c3.132812 3.085938 8.164062 3.070313 11.273437-.039062l29.640625-29.65625h4.6875c30.910156.039062 55.960938 25.089844 56 56zm0 0"/></svg>