<svg id="bold" enable-background="new 0 0 24 24" height="512" viewBox="0 0 24 24" width="512" xmlns="http://www.w3.org/2000/svg"><path d="m7.25 15.5c-.853 0-1.622-.473-2.007-1.233-.386-.765-.311-1.665.196-2.352l5.823-7.915h-8.512c-1.516 0-2.75 1.233-2.75 2.75v9.5c0 1.517 1.234 2.75 2.75 2.75h5.027l.781-3.5z"/><path d="m22.241 7h-.241v-.25c0-1.517-1.234-2.75-2.75-2.75h-2.783c-.009.084-.016.169-.035.253l-.973 4.247h1.541c.861 0 1.633.479 2.015 1.25.382.769.297 1.673-.222 2.359l-5.22 6.891h5.677c1.516 0 2.75-1.233 2.75-2.75v-.25h.241c.965 0 1.75-.785 1.75-1.75v-5.5c0-.965-.785-1.75-1.75-1.75z"/><path d="m9.803 21c-.106 0-.213-.022-.315-.069-.32-.148-.493-.5-.417-.844l1.358-6.087h-3.179c-.283 0-.542-.159-.669-.412-.127-.252-.103-.555.065-.783l6.989-9.5c.209-.287.592-.388.917-.237.323.148.498.502.418.849l-1.393 6.083h3.423c.285 0 .545.161.671.416.127.255.098.56-.074.787l-7.197 9.5c-.145.192-.368.297-.597.297z"/></svg>